<mxfile host="app.diagrams.net" agent="Mozilla/5.0 (Windows NT 10.0; Win64; x64) AppleWebKit/537.36 (KHTML, like Gecko) Chrome/135.0.0.0 Safari/537.36" version="26.2.6">
  <diagram name="Page-1" id="JJjsDHY7Bmy2kn8PrVfE">
    <mxGraphModel dx="904" dy="464" grid="1" gridSize="10" guides="1" tooltips="1" connect="1" arrows="1" fold="1" page="1" pageScale="1" pageWidth="850" pageHeight="1100" math="0" shadow="0">
      <root>
        <mxCell id="0" />
        <mxCell id="1" parent="0" />
        <mxCell id="S71CukBi1wQtl_XnejC7-5" value="" style="rounded=0;whiteSpace=wrap;html=1;" parent="1" vertex="1">
          <mxGeometry x="150" y="150" width="100" height="460" as="geometry" />
        </mxCell>
        <mxCell id="FZulAc5fuG0MoaNXxATA-1" value="" style="rounded=0;whiteSpace=wrap;html=1;" parent="1" vertex="1">
          <mxGeometry x="310" y="150" width="100" height="460" as="geometry" />
        </mxCell>
        <mxCell id="gF6NzZF2bhkfZXJ9cEru-23" style="edgeStyle=orthogonalEdgeStyle;rounded=0;orthogonalLoop=1;jettySize=auto;html=1;exitX=1;exitY=0.5;exitDx=0;exitDy=0;entryX=0;entryY=0.5;entryDx=0;entryDy=0;" parent="1" source="gF6NzZF2bhkfZXJ9cEru-2" target="gF6NzZF2bhkfZXJ9cEru-6" edge="1">
          <mxGeometry relative="1" as="geometry" />
        </mxCell>
        <mxCell id="gF6NzZF2bhkfZXJ9cEru-27" style="rounded=0;orthogonalLoop=1;jettySize=auto;html=1;exitX=1;exitY=0.5;exitDx=0;exitDy=0;entryX=0;entryY=0.5;entryDx=0;entryDy=0;" parent="1" source="gF6NzZF2bhkfZXJ9cEru-2" target="gF6NzZF2bhkfZXJ9cEru-7" edge="1">
          <mxGeometry relative="1" as="geometry" />
        </mxCell>
        <mxCell id="gF6NzZF2bhkfZXJ9cEru-28" style="rounded=0;orthogonalLoop=1;jettySize=auto;html=1;exitX=1;exitY=0.5;exitDx=0;exitDy=0;entryX=0;entryY=0.5;entryDx=0;entryDy=0;" parent="1" source="gF6NzZF2bhkfZXJ9cEru-2" target="gF6NzZF2bhkfZXJ9cEru-5" edge="1">
          <mxGeometry relative="1" as="geometry" />
        </mxCell>
        <mxCell id="gF6NzZF2bhkfZXJ9cEru-33" style="rounded=0;orthogonalLoop=1;jettySize=auto;html=1;exitX=1;exitY=0.5;exitDx=0;exitDy=0;entryX=0;entryY=0.5;entryDx=0;entryDy=0;" parent="1" source="gF6NzZF2bhkfZXJ9cEru-2" target="gF6NzZF2bhkfZXJ9cEru-18" edge="1">
          <mxGeometry relative="1" as="geometry" />
        </mxCell>
        <mxCell id="gF6NzZF2bhkfZXJ9cEru-2" value="Income" style="ellipse;whiteSpace=wrap;html=1;aspect=fixed;" parent="1" vertex="1">
          <mxGeometry x="160" y="280" width="80" height="80" as="geometry" />
        </mxCell>
        <mxCell id="gF6NzZF2bhkfZXJ9cEru-22" style="edgeStyle=orthogonalEdgeStyle;rounded=0;orthogonalLoop=1;jettySize=auto;html=1;exitX=1;exitY=0.5;exitDx=0;exitDy=0;entryX=0;entryY=0.5;entryDx=0;entryDy=0;" parent="1" source="gF6NzZF2bhkfZXJ9cEru-3" target="gF6NzZF2bhkfZXJ9cEru-5" edge="1">
          <mxGeometry relative="1" as="geometry" />
        </mxCell>
        <mxCell id="gF6NzZF2bhkfZXJ9cEru-29" style="rounded=0;orthogonalLoop=1;jettySize=auto;html=1;exitX=1;exitY=0.5;exitDx=0;exitDy=0;entryX=0;entryY=0.5;entryDx=0;entryDy=0;" parent="1" source="gF6NzZF2bhkfZXJ9cEru-3" target="gF6NzZF2bhkfZXJ9cEru-6" edge="1">
          <mxGeometry relative="1" as="geometry" />
        </mxCell>
        <mxCell id="gF6NzZF2bhkfZXJ9cEru-30" style="rounded=0;orthogonalLoop=1;jettySize=auto;html=1;exitX=1;exitY=0.5;exitDx=0;exitDy=0;entryX=0;entryY=0.5;entryDx=0;entryDy=0;" parent="1" source="gF6NzZF2bhkfZXJ9cEru-3" target="gF6NzZF2bhkfZXJ9cEru-7" edge="1">
          <mxGeometry relative="1" as="geometry" />
        </mxCell>
        <mxCell id="gF6NzZF2bhkfZXJ9cEru-31" style="rounded=0;orthogonalLoop=1;jettySize=auto;html=1;exitX=1;exitY=0.5;exitDx=0;exitDy=0;entryX=0;entryY=0.5;entryDx=0;entryDy=0;" parent="1" source="gF6NzZF2bhkfZXJ9cEru-3" target="gF6NzZF2bhkfZXJ9cEru-18" edge="1">
          <mxGeometry relative="1" as="geometry" />
        </mxCell>
        <mxCell id="gF6NzZF2bhkfZXJ9cEru-3" value="Age" style="ellipse;whiteSpace=wrap;html=1;aspect=fixed;" parent="1" vertex="1">
          <mxGeometry x="160" y="160" width="80" height="80" as="geometry" />
        </mxCell>
        <mxCell id="gF6NzZF2bhkfZXJ9cEru-24" style="edgeStyle=orthogonalEdgeStyle;rounded=0;orthogonalLoop=1;jettySize=auto;html=1;exitX=1;exitY=0.5;exitDx=0;exitDy=0;entryX=0;entryY=0.5;entryDx=0;entryDy=0;" parent="1" source="gF6NzZF2bhkfZXJ9cEru-4" target="gF6NzZF2bhkfZXJ9cEru-7" edge="1">
          <mxGeometry relative="1" as="geometry" />
        </mxCell>
        <mxCell id="gF6NzZF2bhkfZXJ9cEru-34" style="rounded=0;orthogonalLoop=1;jettySize=auto;html=1;exitX=1;exitY=0.5;exitDx=0;exitDy=0;" parent="1" source="gF6NzZF2bhkfZXJ9cEru-4" edge="1">
          <mxGeometry relative="1" as="geometry">
            <mxPoint x="320" y="320" as="targetPoint" />
          </mxGeometry>
        </mxCell>
        <mxCell id="gF6NzZF2bhkfZXJ9cEru-35" style="rounded=0;orthogonalLoop=1;jettySize=auto;html=1;exitX=1;exitY=0.5;exitDx=0;exitDy=0;entryX=0;entryY=0.5;entryDx=0;entryDy=0;" parent="1" source="gF6NzZF2bhkfZXJ9cEru-4" target="gF6NzZF2bhkfZXJ9cEru-5" edge="1">
          <mxGeometry relative="1" as="geometry" />
        </mxCell>
        <mxCell id="gF6NzZF2bhkfZXJ9cEru-37" style="rounded=0;orthogonalLoop=1;jettySize=auto;html=1;exitX=1;exitY=0.5;exitDx=0;exitDy=0;entryX=0;entryY=0.5;entryDx=0;entryDy=0;" parent="1" source="gF6NzZF2bhkfZXJ9cEru-4" target="gF6NzZF2bhkfZXJ9cEru-18" edge="1">
          <mxGeometry relative="1" as="geometry" />
        </mxCell>
        <mxCell id="gF6NzZF2bhkfZXJ9cEru-4" value="Education" style="ellipse;whiteSpace=wrap;html=1;aspect=fixed;" parent="1" vertex="1">
          <mxGeometry x="160" y="400" width="80" height="80" as="geometry" />
        </mxCell>
        <mxCell id="gF6NzZF2bhkfZXJ9cEru-12" style="rounded=0;orthogonalLoop=1;jettySize=auto;html=1;exitX=1;exitY=0.5;exitDx=0;exitDy=0;entryX=0;entryY=0.5;entryDx=0;entryDy=0;" parent="1" source="gF6NzZF2bhkfZXJ9cEru-5" target="gF6NzZF2bhkfZXJ9cEru-11" edge="1">
          <mxGeometry relative="1" as="geometry" />
        </mxCell>
        <mxCell id="gF6NzZF2bhkfZXJ9cEru-5" value="Attitude toward Vaccines" style="ellipse;whiteSpace=wrap;html=1;aspect=fixed;" parent="1" vertex="1">
          <mxGeometry x="320" y="160" width="80" height="80" as="geometry" />
        </mxCell>
        <mxCell id="gF6NzZF2bhkfZXJ9cEru-13" style="rounded=0;orthogonalLoop=1;jettySize=auto;html=1;exitX=1;exitY=0.5;exitDx=0;exitDy=0;entryX=0;entryY=0.5;entryDx=0;entryDy=0;" parent="1" source="gF6NzZF2bhkfZXJ9cEru-6" target="gF6NzZF2bhkfZXJ9cEru-11" edge="1">
          <mxGeometry relative="1" as="geometry" />
        </mxCell>
        <mxCell id="gF6NzZF2bhkfZXJ9cEru-6" value="Attitude toward COVID" style="ellipse;whiteSpace=wrap;html=1;aspect=fixed;" parent="1" vertex="1">
          <mxGeometry x="320" y="280" width="80" height="80" as="geometry" />
        </mxCell>
        <mxCell id="gF6NzZF2bhkfZXJ9cEru-14" style="rounded=0;orthogonalLoop=1;jettySize=auto;html=1;exitX=1;exitY=0.5;exitDx=0;exitDy=0;entryX=0;entryY=0.5;entryDx=0;entryDy=0;" parent="1" source="gF6NzZF2bhkfZXJ9cEru-7" target="gF6NzZF2bhkfZXJ9cEru-11" edge="1">
          <mxGeometry relative="1" as="geometry" />
        </mxCell>
        <mxCell id="gF6NzZF2bhkfZXJ9cEru-7" value="Belief about vaccine safety" style="ellipse;whiteSpace=wrap;html=1;aspect=fixed;" parent="1" vertex="1">
          <mxGeometry x="320" y="400" width="80" height="80" as="geometry" />
        </mxCell>
        <mxCell id="gF6NzZF2bhkfZXJ9cEru-11" value="Tendency to Vaccine p(&lt;i&gt;y)&lt;/i&gt;" style="ellipse;whiteSpace=wrap;html=1;aspect=fixed;" parent="1" vertex="1">
          <mxGeometry x="490" y="340" width="80" height="80" as="geometry" />
        </mxCell>
        <mxCell id="gF6NzZF2bhkfZXJ9cEru-15" value="Demographic Information p(i)" style="text;html=1;align=center;verticalAlign=middle;whiteSpace=wrap;rounded=0;" parent="1" vertex="1">
          <mxGeometry x="170" y="110" width="60" height="30" as="geometry" />
        </mxCell>
        <mxCell id="gF6NzZF2bhkfZXJ9cEru-16" value="Attitudes &lt;i&gt;p(j)&lt;/i&gt;" style="text;html=1;align=center;verticalAlign=middle;whiteSpace=wrap;rounded=0;" parent="1" vertex="1">
          <mxGeometry x="330" y="110" width="60" height="30" as="geometry" />
        </mxCell>
        <mxCell id="gF6NzZF2bhkfZXJ9cEru-25" style="edgeStyle=orthogonalEdgeStyle;rounded=0;orthogonalLoop=1;jettySize=auto;html=1;exitX=1;exitY=0.5;exitDx=0;exitDy=0;entryX=0;entryY=0.5;entryDx=0;entryDy=0;" parent="1" source="gF6NzZF2bhkfZXJ9cEru-17" target="gF6NzZF2bhkfZXJ9cEru-18" edge="1">
          <mxGeometry relative="1" as="geometry" />
        </mxCell>
        <mxCell id="gF6NzZF2bhkfZXJ9cEru-26" style="rounded=0;orthogonalLoop=1;jettySize=auto;html=1;exitX=1;exitY=0.5;exitDx=0;exitDy=0;entryX=0;entryY=0.5;entryDx=0;entryDy=0;" parent="1" source="gF6NzZF2bhkfZXJ9cEru-17" target="gF6NzZF2bhkfZXJ9cEru-7" edge="1">
          <mxGeometry relative="1" as="geometry" />
        </mxCell>
        <mxCell id="gF6NzZF2bhkfZXJ9cEru-36" style="rounded=0;orthogonalLoop=1;jettySize=auto;html=1;exitX=1;exitY=0.5;exitDx=0;exitDy=0;entryX=0;entryY=0.5;entryDx=0;entryDy=0;" parent="1" source="gF6NzZF2bhkfZXJ9cEru-17" target="gF6NzZF2bhkfZXJ9cEru-6" edge="1">
          <mxGeometry relative="1" as="geometry" />
        </mxCell>
        <mxCell id="gF6NzZF2bhkfZXJ9cEru-38" style="rounded=0;orthogonalLoop=1;jettySize=auto;html=1;exitX=1;exitY=0.5;exitDx=0;exitDy=0;entryX=0;entryY=0.5;entryDx=0;entryDy=0;" parent="1" source="gF6NzZF2bhkfZXJ9cEru-17" target="gF6NzZF2bhkfZXJ9cEru-5" edge="1">
          <mxGeometry relative="1" as="geometry" />
        </mxCell>
        <mxCell id="gF6NzZF2bhkfZXJ9cEru-17" value="Unobserved Demographics" style="ellipse;whiteSpace=wrap;html=1;aspect=fixed;" parent="1" vertex="1">
          <mxGeometry x="160" y="520" width="80" height="80" as="geometry" />
        </mxCell>
        <mxCell id="gF6NzZF2bhkfZXJ9cEru-20" style="rounded=0;orthogonalLoop=1;jettySize=auto;html=1;exitX=1;exitY=0.5;exitDx=0;exitDy=0;entryX=0;entryY=0.5;entryDx=0;entryDy=0;" parent="1" source="gF6NzZF2bhkfZXJ9cEru-18" target="gF6NzZF2bhkfZXJ9cEru-11" edge="1">
          <mxGeometry relative="1" as="geometry" />
        </mxCell>
        <mxCell id="gF6NzZF2bhkfZXJ9cEru-18" value="Unobserved Attitudes" style="ellipse;whiteSpace=wrap;html=1;aspect=fixed;" parent="1" vertex="1">
          <mxGeometry x="320" y="520" width="80" height="80" as="geometry" />
        </mxCell>
        <mxCell id="gF6NzZF2bhkfZXJ9cEru-32" value="weight of correlation &lt;i&gt;w(i,j)&lt;/i&gt;" style="text;html=1;align=center;verticalAlign=middle;whiteSpace=wrap;rounded=0;" parent="1" vertex="1">
          <mxGeometry x="250" y="160" width="60" height="30" as="geometry" />
        </mxCell>
        <mxCell id="gF6NzZF2bhkfZXJ9cEru-39" value="weight of correlation &lt;i&gt;w(j,y)&lt;/i&gt;" style="text;html=1;align=center;verticalAlign=middle;whiteSpace=wrap;rounded=0;" parent="1" vertex="1">
          <mxGeometry x="450" y="260" width="60" height="30" as="geometry" />
        </mxCell>
        <mxCell id="FZulAc5fuG0MoaNXxATA-4" style="rounded=0;orthogonalLoop=1;jettySize=auto;html=1;exitX=0.5;exitY=0;exitDx=0;exitDy=0;entryX=0.5;entryY=1;entryDx=0;entryDy=0;" parent="1" source="FZulAc5fuG0MoaNXxATA-3" target="FZulAc5fuG0MoaNXxATA-1" edge="1">
          <mxGeometry relative="1" as="geometry" />
        </mxCell>
        <mxCell id="FZulAc5fuG0MoaNXxATA-3" value="Prior Beliefs" style="ellipse;whiteSpace=wrap;html=1;aspect=fixed;" parent="1" vertex="1">
          <mxGeometry x="320" y="680" width="80" height="80" as="geometry" />
        </mxCell>
        <mxCell id="S71CukBi1wQtl_XnejC7-3" style="rounded=0;orthogonalLoop=1;jettySize=auto;html=1;exitX=0.5;exitY=0;exitDx=0;exitDy=0;entryX=0.5;entryY=1;entryDx=0;entryDy=0;startArrow=classic;startFill=1;" parent="1" source="S71CukBi1wQtl_XnejC7-1" target="FZulAc5fuG0MoaNXxATA-1" edge="1">
          <mxGeometry relative="1" as="geometry" />
        </mxCell>
        <mxCell id="S71CukBi1wQtl_XnejC7-1" value="Network Interference" style="ellipse;whiteSpace=wrap;html=1;aspect=fixed;" parent="1" vertex="1">
          <mxGeometry x="240" y="680" width="80" height="80" as="geometry" />
        </mxCell>
        <mxCell id="6FlUxdtMiqfOZhi-onRX-2" style="rounded=0;orthogonalLoop=1;jettySize=auto;html=1;exitX=0.5;exitY=0;exitDx=0;exitDy=0;entryX=0.5;entryY=1;entryDx=0;entryDy=0;" parent="1" source="6FlUxdtMiqfOZhi-onRX-1" target="FZulAc5fuG0MoaNXxATA-1" edge="1">
          <mxGeometry relative="1" as="geometry" />
        </mxCell>
        <mxCell id="6FlUxdtMiqfOZhi-onRX-1" value="Treatment (Ad campaign)" style="ellipse;whiteSpace=wrap;html=1;aspect=fixed;fillColor=#dae8fc;strokeColor=#6c8ebf;" parent="1" vertex="1">
          <mxGeometry x="400" y="680" width="80" height="80" as="geometry" />
        </mxCell>
      </root>
    </mxGraphModel>
  </diagram>
</mxfile>
